<svg xmlns="http://www.w3.org/2000/svg" width="131" height="114.625" viewBox="0 0 131 114.625">
  <g id="svgexport-7_51_" data-name="svgexport-7 (51)" transform="translate(0 -3)">
    <path id="Path_19" data-name="Path 19" d="M43.023,77.5a2.741,2.741,0,0,1-1.932-.8L13.8,49.411a2.732,2.732,0,0,1,1.932-4.661H29.377V17.458A5.464,5.464,0,0,1,34.835,12H51.21a5.464,5.464,0,0,1,5.458,5.458V44.75H70.314a2.732,2.732,0,0,1,1.932,4.661L44.955,76.7A2.741,2.741,0,0,1,43.023,77.5Zm-20.7-27.292,20.7,20.7,20.7-20.7H53.939a2.73,2.73,0,0,1-2.729-2.729V17.458H34.835V47.479a2.73,2.73,0,0,1-2.729,2.729Z" transform="translate(57.956 40.125)" fill="#e5e5e5"/>
    <path id="Path_20" data-name="Path 20" d="M62.771,101.25H13.646A13.661,13.661,0,0,1,0,87.6V16.646A13.661,13.661,0,0,1,13.646,3H117.354A13.661,13.661,0,0,1,131,16.646V71.229a2.729,2.729,0,1,1-5.458,0V16.646a8.2,8.2,0,0,0-8.187-8.187H13.646a8.2,8.2,0,0,0-8.188,8.188V87.6a8.2,8.2,0,0,0,8.188,8.188H62.771a2.729,2.729,0,1,1,0,5.458Z" fill="#e5e5e5"/>
    <path id="Path_21" data-name="Path 21" d="M40.938,51.667H2.729A2.73,2.73,0,0,1,0,48.938V10.729A2.73,2.73,0,0,1,2.729,8H40.938A13.661,13.661,0,0,1,54.583,21.646V38.021A13.661,13.661,0,0,1,40.938,51.667ZM5.458,46.208H40.938a8.2,8.2,0,0,0,8.188-8.187V21.646a8.2,8.2,0,0,0-8.187-8.188H5.458Z" transform="translate(0 22.292)" fill="#e5e5e5"/>
    <path id="Path_22" data-name="Path 22" d="M13.917,31.833A10.917,10.917,0,1,1,24.833,20.917,10.928,10.928,0,0,1,13.917,31.833Zm0-16.375a5.458,5.458,0,1,0,5.458,5.458A5.464,5.464,0,0,0,13.917,15.458Z" transform="translate(13.375 31.208)" fill="#c3f3e8"/>
  </g>
</svg>
