<svg xmlns="http://www.w3.org/2000/svg" width="24" height="24" viewBox="0 0 24 24">
  <g id="svgexport-7_52_" data-name="svgexport-7 (52)" transform="translate(0 0)">
    <g id="Group_18" data-name="Group 18" transform="translate(0 0)">
      <path id="Path_51" data-name="Path 51" d="M12,24A12,12,0,0,1,3.515,3.515,12,12,0,0,1,20.485,20.485,11.921,11.921,0,0,1,12,24ZM12,1.5A10.5,10.5,0,1,0,22.5,12,10.512,10.512,0,0,0,12,1.5Z" transform="translate(0 0)" fill="#51ba78"/>
      <path id="Path_52" data-name="Path 52" d="M187.375,102.75a1.875,1.875,0,1,1,1.875-1.875.75.75,0,0,0,1.5,0,3.38,3.38,0,0,0-2.625-3.29V96.75a.75.75,0,0,0-1.5,0v.835a3.375,3.375,0,0,0,.75,6.665,1.875,1.875,0,1,1-1.875,1.875.75.75,0,0,0-1.5,0,3.38,3.38,0,0,0,2.625,3.29v.835a.75.75,0,1,0,1.5,0v-.835a3.375,3.375,0,0,0-.75-6.665Z" transform="translate(-175.375 -91.5)" fill="#51ba78"/>
    </g>
  </g>
</svg>
