<svg xmlns="http://www.w3.org/2000/svg" width="37" height="32.024" viewBox="0 0 37 32.024">
  <g id="svgexport-7_49_" data-name="svgexport-7 (49)" transform="translate(0.001 0)">
    <path id="Path_1" data-name="Path 1" d="M36.723,9.52,27.48.277a.946.946,0,0,0-1.337,0L21.06,5.36a.536.536,0,0,0,.758.758l4.993-4.993,9.064,9.064-16.33,16.33-1.9-1.9c.077-.088.153-.177.226-.269l.292-.37a.765.765,0,0,0,.567-.067,1.738,1.738,0,0,1,1.634,0A.772.772,0,0,0,20.73,24a.758.758,0,0,0,.537-.224l1.243-1.243a.536.536,0,0,0-.758-.758l-1.088,1.087a2.782,2.782,0,0,0-1.457-.215l.379-.479,2.42-2.42h0L24.163,17.6a3.9,3.9,0,1,0-3.745-6.535,3.932,3.932,0,0,0-.978,3.879,6.325,6.325,0,0,0-1.194.917L16.108,18a.728.728,0,0,1-.519.213h-.018a1.1,1.1,0,0,1-.825-.631V15.722L25.691,4.776a2.777,2.777,0,0,0,2.241,0l4.292,4.292a2.779,2.779,0,0,0,0,2.241l-8.678,8.678a.536.536,0,0,0,.758.758l8.834-8.834a.761.761,0,0,0,.13-.905,1.736,1.736,0,0,1,0-1.634.76.76,0,0,0-.13-.906l-4.6-4.6a.761.761,0,0,0-.906-.13,1.735,1.735,0,0,1-1.634,0,.761.761,0,0,0-.906.13L14.745,14.206V13.19l5.26-5.26a.536.536,0,0,0-.32-.912c-.895-.1-1.774-.172-2.481-.23-.485-.04-.868-.071-1.1-.1a2.729,2.729,0,0,0-2.1.742l-4.678,3.69-.01.008a4.7,4.7,0,0,0-1.54,2.38A46.268,46.268,0,0,1,5.59,19.762L3.312,22.042l-.085-.085a1.185,1.185,0,0,0-1.676,0l-1.2,1.2a1.185,1.185,0,0,0,0,1.676l6.841,6.841a1.185,1.185,0,0,0,1.676,0l1.2-1.2a1.185,1.185,0,0,0,0-1.676L9.98,28.71l.568-.568a2.061,2.061,0,0,1,.881-.521l.022-.007,3.436-1.157a6.473,6.473,0,0,0,1.983-1.1l2.007,2.007a.946.946,0,0,0,1.337,0L36.723,10.857a.946.946,0,0,0,0-1.337Zm-15.095,9.1-.393-.393a.353.353,0,0,1,0-.5L22,16.957a1.193,1.193,0,0,1,1.46-.176Zm-.451-6.8A2.831,2.831,0,0,1,25.384,15.6a1.548,1.548,0,0,0-.471-1.089,2.185,2.185,0,0,0-1.615-.683,6.679,6.679,0,0,0-2.881.614,2.852,2.852,0,0,1,.76-2.618ZM9.309,29.715l-1.2,1.2a.113.113,0,0,1-.16,0L1.1,24.078a.113.113,0,0,1,0-.16l1.2-1.2a.113.113,0,0,1,.16,0l6.841,6.841a.113.113,0,0,1,0,.16Zm8.325-6.8-.607.768a5.391,5.391,0,0,1-.508.558l-.006.006,0,0a5.392,5.392,0,0,1-1.968,1.194L11.119,26.6a3.137,3.137,0,0,0-1.329.789l-.568.568L4.069,22.8l2.338-2.338a.545.545,0,0,0,.1-.13A45.362,45.362,0,0,0,8.817,13.8,3.629,3.629,0,0,1,10,11.959l4.678-3.69.01-.008a1.691,1.691,0,0,1,1.291-.507c.248.03.64.062,1.136.1.4.033.853.07,1.332.114L13.83,12.59a.536.536,0,0,0-.157.379v4.694a.53.53,0,0,0,.018.138,2.134,2.134,0,0,0,1.879,1.482h.018a1.794,1.794,0,0,0,1.278-.528l2.139-2.139a5.621,5.621,0,0,1,1.3-.94l.006,0a.544.544,0,0,0,.065-.035,5.958,5.958,0,0,1,2.86-.744,1.186,1.186,0,0,1,.857.307c.012.015.025.029.038.043a.469.469,0,0,1,.168.454.9.9,0,0,1-.115.28,2.266,2.266,0,0,0-2.943.22l-.767.767a1.425,1.425,0,0,0,0,2.015l.393.393-2.064,2.063a.5.5,0,0,0-.041.047l-1.129,1.428v0Zm0,0" fill="#68c6b1"/>
  </g>
</svg>
