<svg xmlns="http://www.w3.org/2000/svg" xmlns:xlink="http://www.w3.org/1999/xlink" width="100" height="100" viewBox="0 0 100 100">
  <defs>
    <clipPath id="clip-path">
      <rect id="Rectangle_28" data-name="Rectangle 28" width="100" height="100" transform="translate(201 359)" fill="#fff"/>
    </clipPath>
  </defs>
  <g id="Mask_Group_4" data-name="Mask Group 4" transform="translate(-201 -359)" clip-path="url(#clip-path)">
    <g id="Visa_Debit_SVG_logo" transform="translate(197.337 368.662)">
      <path id="Path_37" data-name="Path 37" d="M3.663,7.891c1.343-.691,2.878-.412,4.321-.439,3.3.086,6.614-.08,9.918.066a3.114,3.114,0,0,1,2.971,2.672c1.037,5.026,1.988,10.071,3,15.11C22.2,19.4,17.756,14.578,12.537,11.514A43.352,43.352,0,0,0,3.663,7.891Z" fill="#f4a929"/>
      <path id="Path_38" data-name="Path 38" d="M32.407,7.465c2.865.033,5.724.02,8.582,0-4.348,10.39-8.4,20.9-12.843,31.25-2.792-.086-5.584-.047-8.376-.047-2.473-9.034-4.78-18.115-7.233-27.155C17.756,14.578,22.2,19.4,23.878,25.3c.253,1.143.432,2.313.651,3.47Q28.438,18.111,32.407,7.465Z" fill="#1b4da2"/>
      <path id="Path_39" data-name="Path 39" d="M44.2,7.452q4.038.03,8.077,0c-1.655,10.41-3.4,20.807-5.012,31.224q-4.018.01-8.044,0C40.763,28.252,42.578,17.869,44.2,7.452Z" fill="#1b4da2"/>
      <path id="Path_40" data-name="Path 40" d="M59.935,9.413C64.761,6.242,71.07,6.335,76.408,8.09c-.246,2.307-.632,4.593-1.03,6.874a13.73,13.73,0,0,0-9.234-1.177c-1.456.346-2.892,2.154-1.682,3.51,2.486,2.546,6.4,3.124,8.742,5.9,2.712,2.652,2.613,7.12.764,10.224-1.954,3.277-5.717,4.992-9.38,5.484A25.463,25.463,0,0,1,52.25,37.473c.412-2.327.758-4.667,1.177-6.993a16.422,16.422,0,0,0,11,1.775c1.27-.425,2.579-1.469,2.466-2.958-.419-1.775-2.273-2.533-3.716-3.337-2.8-1.376-5.81-3.065-7.066-6.089C54.544,16.047,56.611,11.573,59.935,9.413Z" fill="#1b4da2"/>
      <path id="Path_41" data-name="Path 41" d="M86.412,10.649c.538-1.436,1.6-3,3.284-3.084,2.473-.173,4.959-.027,7.432-.073,2.214,10.4,4.354,20.8,6.535,31.2-2.486.007-4.972.007-7.459.013q-.528-2.343-1-4.707c-3.45,0-6.894.007-10.337-.013-.552,1.575-1.123,3.151-1.715,4.713q-4.228,0-8.456.007C78.588,29.349,82.523,20.009,86.412,10.649Z" fill="#1b4da2"/>
      <path id="Path_42" data-name="Path 42" d="M87.21,27.561c1.5-3.862,2.732-7.838,4.414-11.627.5,3.922,1.476,7.764,2.28,11.633C91.671,27.568,89.444,27.568,87.21,27.561Z" fill="#fff"/>
      <path id="Path_43" data-name="Path 43" d="M55.321,59.636c3,.053,6.874-.452,8.788,2.453a8.123,8.123,0,0,1-3.231,10.776c-2.406,1.283-5.238.731-7.844.851C53.832,69.029,54.451,64.309,55.321,59.636Z" fill="#161314"/>
      <path id="Path_44" data-name="Path 44" d="M68.71,59.662c2.373,0,4.746-.007,7.12.013-.1.419-.292,1.25-.392,1.669-1.728.086-3.457.027-5.185.04-.166,1.4-.386,2.8-.678,4.175,1.349.007,2.7.007,4.055.013,0,.445-.013,1.336-.013,1.782-1.416-.007-2.825-.013-4.241-.027q-.439,2.4-.824,4.813c1.835.027,3.669.02,5.511.027-.086.359-.253,1.07-.339,1.429-2.4.266-4.826.06-7.239.12C67.187,69.022,67.912,64.336,68.71,59.662Z" fill="#181415"/>
      <path id="Path_45" data-name="Path 45" d="M76.015,73.749c.778-4.693,1.5-9.4,2.24-14.1,2.021.086,4.241-.319,6.063.784,2.114,1.669,1.077,5.052-1.23,6,2.586,1.057,2.533,4.893.352,6.322C81.28,74.254,78.475,73.549,76.015,73.749Z" fill="#191617"/>
      <path id="Path_46" data-name="Path 46" d="M89.125,59.742l1.921-.133c-.758,4.72-1.443,9.446-2.267,14.153l-1.868-.053C87.762,69.075,88.413,64.4,89.125,59.742Z" fill="#181415"/>
      <path id="Path_47" data-name="Path 47" d="M93.492,59.709c3.344-.12,6.687-.007,10.038-.047,0,.432,0,1.3.007,1.728q-2.134-.01-4.268-.027c-.8,4.088-1.243,8.236-2.034,12.318-.459.033-1.369.093-1.821.12.645-4.141,1.25-8.29,1.968-12.418q-2.134,0-4.268-.013C93.206,60.952,93.4,60.121,93.492,59.709Z" fill="#171314"/>
      <path id="Path_48" data-name="Path 48" d="M56.89,61.331c2.094-.027,4.753-.1,5.8,2.141.818,2.659.286,6.029-2.16,7.678-1.556,1.177-3.59,1.01-5.424,1.044C55.767,68.583,56.206,64.941,56.89,61.331Z" fill="#fff"/>
      <path id="Path_49" data-name="Path 49" d="M79.745,61.311c1.476-.06,3.849-.259,3.922,1.821-.027,2.333-2.706,2.619-4.48,2.593C79.366,64.249,79.565,62.787,79.745,61.311Z" fill="#fff"/>
      <path id="Path_50" data-name="Path 50" d="M78.9,67.214c1.363.146,3.35-.279,4.062,1.243a2.481,2.481,0,0,1-1.177,3.43,12.543,12.543,0,0,1-3.729.432C78.362,70.618,78.668,68.922,78.9,67.214Z" fill="#fff"/>
    </g>
  </g>
</svg>
